<?xml version="1.0" encoding="UTF-8"?>
<svg version="1.1" xmlns="http://www.w3.org/2000/svg" width="770" height="744">
<path d="M0 0 C3.15378501 2.78113628 6.21953932 5.65223425 9.2890625 8.52539062 C10.70026811 9.76082329 12.11654536 10.99049947 13.5390625 12.21289062 C19.99213417 17.83797143 25.79166504 23.97000346 31.2890625 30.52539062 C31.72379883 31.04101562 32.15853516 31.55664062 32.60644531 32.08789062 C48.51714877 51.07286559 65.87974906 74.88565678 64.66015625 100.72851562 C63.49620683 112.63755597 57.80881184 119.71605334 49.06640625 127.50585938 C-20.51938437 182.38245848 -137.71224433 195.98564045 -232.7109375 208.52539062 C-231.94722336 208.64321396 -231.18350922 208.76103729 -230.39665222 208.88243103 C-125.03233395 225.15221133 -125.03233395 225.15221133 -78.15112305 235.76513672 C-75.18261431 236.42115377 -72.21262552 237.02267171 -69.2265625 237.59179688 C-64.88045423 238.4454725 -60.72844188 239.64418128 -56.5234375 241.02539062 C-55.37234497 241.39591553 -55.37234497 241.39591553 -54.19799805 241.77392578 C-52.42548979 242.34524272 -50.65381989 242.91916457 -48.8828125 243.49511719 C-45.11930777 244.717561 -41.35275104 245.93037667 -37.5859375 247.14257812 C-29.95911665 249.597894 -22.33451889 252.06003516 -14.7109375 254.52539062 C-14.92242432 253.92645996 -15.13391113 253.3275293 -15.35180664 252.71044922 C-15.62629639 251.91461426 -15.90078613 251.1187793 -16.18359375 250.29882812 C-16.59363647 249.12199463 -16.59363647 249.12199463 -17.01196289 247.92138672 C-19.57746693 239.12716506 -16.7002368 231.02756965 -12.4609375 223.22460938 C-8.76446255 217.6483929 -4.02131054 214.64209843 2.2890625 212.52539062 C4.80090434 212.18185275 6.74932725 212.24933245 9.2890625 212.52539062 C11.33445139 219.47971285 11.87075884 226.30414849 12.2890625 233.52539062 C11.0825 233.98945312 11.0825 233.98945312 9.8515625 234.46289062 C7.39825845 235.28874407 7.39825845 235.28874407 6.2890625 236.52539062 C5.81502715 241.37566534 6.60557525 243.61663861 9.6015625 247.40039062 C15.57274674 255.51104776 16.78802997 261.47212022 16.2890625 271.52539062 C16.86914062 271.78964844 17.44921875 272.05390625 18.046875 272.32617188 C27.5244331 277.39517943 35.66182209 287.1532512 38.875 297.39257812 C42.32702504 315.17376369 33.56301274 331.14831402 24.0546875 345.45507812 C19.24892453 352.56066906 14.28613756 359.55359017 9.2890625 366.52539062 C8.6290625 366.19539063 7.9690625 365.86539062 7.2890625 365.52539062 C7.66603271 365.00855713 8.04300293 364.49172363 8.43139648 363.95922852 C29.13953664 335.99158033 29.13953664 335.99158033 34.2890625 302.52539062 C32.90230101 294.6760513 27.33253629 288.55439857 21.09375 283.88085938 C18.18125026 282.0162147 15.57985025 280.62231988 12.2890625 279.52539062 C12.1240625 280.20601563 11.9590625 280.88664062 11.7890625 281.58789062 C9.07497339 286.90298181 4.14286162 290.86599036 -1.2109375 293.46289062 C-4.7109375 294.52539062 -4.7109375 294.52539062 -12.7109375 294.52539062 C-14.6909375 284.13039063 -14.6909375 284.13039063 -16.7109375 273.52539062 C-14.7309375 273.52539062 -12.7509375 273.52539062 -10.7109375 273.52539062 C-9.7209375 272.53539062 -8.7309375 271.54539062 -7.7109375 270.52539062 C-12.0009375 269.20539063 -16.2909375 267.88539063 -20.7109375 266.52539062 C-20.3809375 268.50539063 -20.0509375 270.48539062 -19.7109375 272.52539062 C-22.95819329 273.53445523 -26.20914824 274.53104184 -29.4609375 275.52539062 C-30.38132812 275.8115625 -31.30171875 276.09773438 -32.25 276.39257812 C-33.13945313 276.66328125 -34.02890625 276.93398438 -34.9453125 277.21289062 C-35.76225586 277.46425781 -36.57919922 277.715625 -37.42089844 277.97460938 C-39.7109375 278.52539062 -39.7109375 278.52539062 -43.7109375 278.52539062 C-44.3709375 273.90539062 -45.0309375 269.28539062 -45.7109375 264.52539062 C-43.7309375 263.86539062 -41.7509375 263.20539063 -39.7109375 262.52539062 C-39.7109375 262.19539063 -39.7109375 261.86539062 -39.7109375 261.52539062 C-43.6709375 260.53539062 -47.6309375 259.54539062 -51.7109375 258.52539062 C-51.46859375 259.80704102 -51.22625 261.08869141 -50.9765625 262.40917969 C-50.07837829 267.1645184 -49.18495561 271.92074135 -48.29296875 276.67724609 C-47.90624736 278.73575887 -47.51823513 280.79402957 -47.12890625 282.85205078 C-46.56951789 285.81024486 -46.01477754 288.76927842 -45.4609375 291.72851562 C-45.28594727 292.64844299 -45.11095703 293.56837036 -44.93066406 294.51617432 C-44.77049805 295.37676453 -44.61033203 296.23735474 -44.4453125 297.12402344 C-44.30319336 297.87903137 -44.16107422 298.63403931 -44.01464844 299.41192627 C-43.7109375 301.52539063 -43.7109375 301.52539063 -43.7109375 305.52539062 C-50.6409375 307.50539063 -57.5709375 309.48539062 -64.7109375 311.52539062 C-66.28412442 308.37901678 -67.04227855 306.57532895 -67.640625 303.27929688 C-67.79418457 302.45163818 -67.94774414 301.62397949 -68.10595703 300.77124023 C-68.26435059 299.88573486 -68.42274414 299.00022949 -68.5859375 298.08789062 C-68.75593262 297.17080322 -68.92592773 296.25371582 -69.10107422 295.30883789 C-69.82702414 291.39144146 -70.53880438 287.47150134 -71.25195312 283.55175781 C-71.77507891 280.6878819 -72.30533301 277.82538871 -72.8359375 274.96289062 C-72.99433105 274.07738525 -73.15272461 273.19187988 -73.31591797 272.27954102 C-73.46947754 271.45188232 -73.62303711 270.62422363 -73.78125 269.77148438 C-73.91289551 269.04630615 -74.04454102 268.32112793 -74.18017578 267.57397461 C-74.75314095 265.36249773 -75.62334312 263.52833466 -76.7109375 261.52539062 C-78.3609375 261.85539062 -80.0109375 262.18539063 -81.7109375 262.52539062 C-81.860722 268.70782236 -81.41877446 274.27564513 -80.1796875 280.32226562 C-80.02431519 281.11892639 -79.86894287 281.91558716 -79.7088623 282.73638916 C-79.21749317 285.25103208 -78.71509899 287.76328395 -78.2109375 290.27539062 C-77.7081214 292.80200539 -77.20783079 295.32904505 -76.7130127 297.85723877 C-76.40636894 299.42198056 -76.09500062 300.98580624 -75.77819824 302.54852295 C-75.04736245 306.25805551 -74.52833895 309.74112877 -74.7109375 313.52539062 C-79.94837625 315.38956374 -85.11780105 316.90426984 -90.54296875 318.13085938 C-91.70159424 318.39406982 -92.86021973 318.65728027 -94.05395508 318.9284668 C-94.93075928 319.12545166 -95.80756348 319.32243652 -96.7109375 319.52539062 C-97.98129746 313.30119977 -99.24386156 307.07546289 -100.5012207 300.84863281 C-100.92914772 298.73401797 -101.35880607 296.61975269 -101.7902832 294.50585938 C-102.41301465 291.45339543 -103.02934429 288.39969539 -103.64453125 285.34570312 C-103.83623398 284.41299591 -104.02793671 283.4802887 -104.22544861 282.51931763 C-106.85490685 269.37753985 -107.53475938 260.29393653 -100.7109375 248.52539062 C-102.45670411 248.21353258 -104.20247281 247.90168628 -105.94824219 247.58984375 C-107.08094543 247.38750122 -108.21364868 247.18515869 -109.38067627 246.97668457 C-111.91802921 246.52357256 -114.45542459 246.07069816 -116.99285889 245.61804199 C-123.00969031 244.5445711 -129.02623865 243.46970501 -135.04101562 242.38476562 C-191.71490745 232.17891367 -248.73312335 223.76012832 -305.8359375 216.33789062 C-307.40631775 216.13276352 -307.40631775 216.13276352 -309.00842285 215.92349243 C-314.650469 215.19133448 -320.29497119 214.49361639 -325.9473877 213.84625244 C-327.87793833 213.62210595 -329.80749078 213.38926723 -331.73620605 213.14984131 C-334.76470578 212.77720671 -337.79530719 212.4350584 -340.828125 212.09960938 C-341.7478006 211.98140335 -342.6674762 211.86319733 -343.61502075 211.7414093 C-348.93773188 211.16027193 -348.93773188 211.16027193 -353.68823242 213.44262695 C-354.68947144 214.47359497 -354.68947144 214.47359497 -355.7109375 215.52539062 C-360.21359462 217.02888657 -363.7036251 216.98153209 -368.0234375 215.02539062 C-371.21291467 212.05843512 -372.77085809 209.40554944 -374.7109375 205.52539062 C-376.6909375 206.51539063 -378.6709375 207.50539063 -380.7109375 208.52539062 C-378.40491216 241.32601968 -372.83906022 273.83286524 -360.7109375 304.52539062 C-360.32518555 305.50910645 -360.32518555 305.50910645 -359.93164062 306.51269531 C-351.69992281 327.17249564 -339.32839603 344.89249464 -324.7109375 361.52539062 C-324.12828125 362.19441406 -323.545625 362.8634375 -322.9453125 363.55273438 C-317.38868789 369.51628352 -310.38876574 373.92222747 -303.7109375 378.52539062 C-304.0409375 379.18539063 -304.3709375 379.84539062 -304.7109375 380.52539062 C-311.88756861 375.39532732 -318.88852464 370.11753232 -325.7109375 364.52539062 C-326.62746094 363.79578125 -327.54398437 363.06617188 -328.48828125 362.31445312 C-345.19416885 348.68313686 -360.35697807 333.20920113 -372.7109375 315.52539062 C-373.154375 314.90535156 -373.5978125 314.2853125 -374.0546875 313.64648438 C-388.81842905 292.95088238 -398.72995513 270.09435198 -404.703125 245.43164062 C-406.06354024 239.34897824 -406.06354024 239.34897824 -410.0234375 234.83789062 C-416.45438964 229.30428065 -419.24078203 220.16725627 -419.9296875 211.90039062 C-420.21554943 203.32453286 -418.94539178 196.87828329 -413.16015625 190.40039062 C-409.17494263 185.36410333 -408.70783298 181.42993819 -408.5859375 175.15039062 C-405.43890365 118.17373793 -379.91822266 59.42293989 -340.3046875 18.23632812 C-338.19809872 16.03456214 -336.22134108 13.80228463 -334.2734375 11.46289062 C-324.52138082 0.28427409 -312.67109209 -8.80609386 -300.7109375 -17.47460938 C-300.02467285 -17.97460449 -299.3384082 -18.47459961 -298.63134766 -18.98974609 C-216.49823537 -78.11856868 -108.23392778 -72.29008958 0 0 Z M-278.7109375 -1.47460938 C-279.67128906 -0.78882813 -280.63164062 -0.10304687 -281.62109375 0.60351562 C-298.83206169 13.21128661 -314.6136878 27.64823614 -327.7109375 44.52539062 C-328.4740625 45.45996094 -329.2371875 46.39453125 -330.0234375 47.35742188 C-363.37997322 88.99963554 -382.67370916 144.1450508 -381.7109375 197.52539062 C-379.2359375 196.53539062 -379.2359375 196.53539062 -376.7109375 195.52539062 C-376.0509375 196.51539063 -375.3909375 197.50539063 -374.7109375 198.52539062 C-374.5665625 197.61789062 -374.4221875 196.71039063 -374.2734375 195.77539062 C-372.20660383 191.47637659 -369.91460945 190.85993842 -365.609375 189.18945312 C-364.66964844 188.86074219 -364.66964844 188.86074219 -363.7109375 188.52539062 C-362.7209375 190.83539063 -361.7309375 193.14539063 -360.7109375 195.52539062 C-358.2359375 193.54539062 -358.2359375 193.54539062 -355.7109375 191.52539062 C-356.55262789 187.54649059 -357.23283891 185.04225396 -360.0234375 182.02539062 C-362.58101364 180.28752724 -362.58101364 180.28752724 -365.3359375 180.65039062 C-367.92381707 181.49913738 -367.92381707 181.49913738 -370.7109375 183.52539062 C-374.15512884 174.11536785 -374.15512884 174.11536785 -373.7109375 169.52539062 C-368.69296003 166.43740449 -364.46675057 165.62475081 -358.7109375 166.52539062 C-353.16921083 169.08311062 -350.17276536 173.07794174 -347.7109375 178.52539062 C-346.49738012 182.4864419 -345.5426706 186.46815599 -344.7109375 190.52539062 C-343.0609375 190.52539062 -341.4109375 190.52539062 -339.7109375 190.52539062 C-340.02287214 188.79612188 -340.33551112 187.06698018 -340.6484375 185.33789062 C-340.82246094 184.37496094 -340.99648438 183.41203125 -341.17578125 182.41992188 C-341.506888 180.62904524 -341.86273271 178.84231216 -342.2578125 177.06445312 C-343.40636279 170.628611 -343.75465912 163.94682479 -341.1484375 157.90039062 C-337.62787696 154.47010087 -334.40500989 152.51194268 -329.36328125 152.53710938 C-325.95617485 152.87505001 -322.9658352 153.44042472 -319.7109375 154.52539062 C-318.640625 156.72460938 -318.640625 156.72460938 -317.7109375 159.52539062 C-317.40414062 160.43933594 -317.09734375 161.35328125 -316.78125 162.29492188 C-314.08812207 170.96412293 -311.83966656 179.70475264 -309.7109375 188.52539062 C-302.30076727 188.63998089 -295.06887483 188.43699348 -287.7109375 187.52539062 C-287.7109375 187.19539062 -287.7109375 186.86539063 -287.7109375 186.52539062 C-288.68933594 186.3784375 -288.68933594 186.3784375 -289.6875 186.22851562 C-295.2020752 185.28501898 -299.45577195 184.38472682 -303.7109375 180.52539062 C-308.19311988 173.91173565 -310.7182546 167.62422014 -309.7109375 159.52539062 C-305.698574 145.77686546 -305.698574 145.77686546 -302.0234375 143.46289062 C-301.2603125 143.15351563 -300.4971875 142.84414063 -299.7109375 142.52539062 C-298.2259375 141.72101563 -298.2259375 141.72101563 -296.7109375 140.90039062 C-290.78983411 138.44808815 -284.03277282 138.17989947 -278.078125 140.59179688 C-271.98075084 144.28443106 -269.05940362 148.78282612 -267.13671875 155.54492188 C-265.52739864 163.03047503 -267.14397007 169.84850451 -270.7109375 176.52539062 C-274.28126725 180.69947134 -278.34765854 184.01696842 -283.7109375 185.52539062 C-283.7109375 185.85539063 -283.7109375 186.18539062 -283.7109375 186.52539062 C-272.04572924 185.90279007 -260.5653908 184.19640115 -249.0234375 182.46289062 C-247.99483612 182.30888794 -246.96623474 182.15488525 -245.90646362 181.99621582 C-180.25718046 172.11134141 -116.08393863 156.13225139 -52.7109375 136.52539062 C-53.40169022 132.44975928 -54.09553486 128.37466762 -54.79223633 124.30004883 C-55.02876244 122.91412575 -55.2644464 121.52805867 -55.49926758 120.1418457 C-55.83713351 118.14822242 -56.17828974 116.15515764 -56.51953125 114.16210938 C-56.82588501 112.36326294 -56.82588501 112.36326294 -57.13842773 110.52807617 C-57.64854271 107.49098974 -57.64854271 107.49098974 -58.7109375 104.52539062 C-60.3609375 104.85539063 -62.0109375 105.18539062 -63.7109375 105.52539062 C-64.0409375 106.51539063 -64.3709375 107.50539063 -64.7109375 108.52539062 C-64.3809375 109.18539062 -64.0509375 109.84539062 -63.7109375 110.52539062 C-62.0609375 110.52539062 -60.4109375 110.52539062 -58.7109375 110.52539062 C-57.54683751 120.00649417 -57.9199939 127.37109562 -60.7109375 136.52539062 C-65.0009375 136.85539063 -69.2909375 137.18539062 -73.7109375 137.52539062 C-73.36869141 136.09646484 -73.36869141 136.09646484 -73.01953125 134.63867188 C-72.58833984 132.75728516 -72.58833984 132.75728516 -72.1484375 130.83789062 C-71.85839844 129.59652344 -71.56835938 128.35515625 -71.26953125 127.07617188 C-70.7413189 123.71851437 -70.67697747 121.72332163 -71.7109375 118.52539062 C-73.64991629 115.85140587 -73.64991629 115.85140587 -75.7109375 113.52539062 C-77.68858786 109.57008991 -77.12901149 104.83716863 -76.7109375 100.52539062 C-75.2117296 97.25439158 -73.97611065 96.11899075 -70.74609375 94.60351562 C-63.02289585 91.8791929 -56.16704625 92.08913121 -47.7109375 91.52539062 C-45.4009375 104.72539062 -43.0909375 117.92539062 -40.7109375 131.52539062 C-32.40728104 129.26075704 -24.781418 126.84279099 -16.8359375 123.71289062 C-15.04325439 123.00688721 -15.04325439 123.00688721 -13.21435547 122.28662109 C-3.92762104 118.57922714 5.14951205 114.47413056 14.1640625 110.15039062 C14.78343689 109.85611176 15.40281128 109.56183289 16.04095459 109.25863647 C25.34937478 104.90127868 25.34937478 104.90127868 33.2890625 98.52539062 C35.56500599 88.59400084 27.96510608 77.34058106 22.93310547 69.11547852 C18.80728322 62.5805458 14.19370946 56.49102838 9.2890625 50.52539062 C8.82097168 49.95433594 8.35288086 49.38328125 7.87060547 48.79492188 C-2.31782742 36.45026097 -13.15888789 25.47983808 -25.7109375 15.52539062 C-26.57074219 14.79835937 -27.43054688 14.07132813 -28.31640625 13.32226562 C-54.96312187 -9.19165067 -87.6436554 -24.84414183 -121.3359375 -33.41210938 C-122.06723877 -33.59926514 -122.79854004 -33.7864209 -123.55200195 -33.97924805 C-137.15946029 -37.21523253 -150.73301319 -37.88463142 -164.6484375 -37.84960938 C-165.93077271 -37.84829514 -165.93077271 -37.84829514 -167.23901367 -37.84695435 C-207.3713693 -37.7117766 -246.0152513 -24.87401864 -278.7109375 -1.47460938 Z M-295.7109375 156.52539062 C-297.31180377 159.72712316 -297.21010839 163.05116121 -296.7109375 166.52539062 C-294.91729839 169.33542523 -293.69212815 171.0347953 -290.7109375 172.52539062 C-286.71703314 173.05791121 -285.19352508 172.87928818 -281.8984375 170.46289062 C-279.26776132 166.93026832 -278.7109375 164.91634047 -278.7109375 160.52539062 C-280.22610378 156.51019999 -281.1164628 154.92170709 -284.7109375 152.52539062 C-289.81208516 151.86002354 -292.05784694 152.97667408 -295.7109375 156.52539062 Z M-330.7109375 166.52539062 C-331.83764181 169.90550357 -331.55525571 171.02996369 -330.71484375 174.41210938 C-330.48603516 175.34990234 -330.25722656 176.28769531 -330.02148438 177.25390625 C-329.77462891 178.23037109 -329.52777344 179.20683594 -329.2734375 180.21289062 C-329.03044922 181.20095703 -328.78746094 182.18902344 -328.53710938 183.20703125 C-327.93561887 185.64837508 -327.32663744 188.08759871 -326.7109375 190.52539062 C-325.0609375 190.19539063 -323.4109375 189.86539063 -321.7109375 189.52539062 C-323.3609375 182.26539063 -325.0109375 175.00539063 -326.7109375 167.52539062 C-328.0309375 167.19539062 -329.3509375 166.86539063 -330.7109375 166.52539062 Z M-362.7109375 199.52539062 C-363.0409375 200.51539063 -363.3709375 201.50539063 -363.7109375 202.52539062 C-362.3909375 202.19539063 -361.0709375 201.86539062 -359.7109375 201.52539062 C-360.0409375 200.86539062 -360.3709375 200.20539063 -360.7109375 199.52539062 C-361.3709375 199.52539062 -362.0309375 199.52539062 -362.7109375 199.52539062 Z " fill="#4E4E4E" transform="translate(549.7109375,169.474609375)"/>
<path d="M0 0 C2.04538889 6.95432222 2.58169634 13.77875787 3 21 C2.195625 21.309375 1.39125 21.61875 0.5625 21.9375 C-1.89080405 22.76335345 -1.89080405 22.76335345 -3 24 C-3.47403535 28.85027472 -2.68348725 31.09124799 0.3125 34.875 C6.28368424 42.98565713 7.49896747 48.94672959 7 59 C7.58007812 59.26425781 8.16015625 59.52851563 8.7578125 59.80078125 C18.2353706 64.86978881 26.37275959 74.62786057 29.5859375 84.8671875 C33.03796254 102.64837307 24.27395024 118.62292339 14.765625 132.9296875 C9.95986203 140.03527844 4.99707506 147.02819955 0 154 C-0.66 153.67 -1.32 153.34 -2 153 C-1.62302979 152.4831665 -1.24605957 151.96633301 -0.85766602 151.43383789 C19.85047414 123.4661897 19.85047414 123.4661897 25 90 C23.61323851 82.15066067 18.04347379 76.02900795 11.8046875 71.35546875 C8.89218776 69.49082408 6.29078775 68.09692925 3 67 C2.835 67.680625 2.67 68.36125 2.5 69.0625 C-0.21408911 74.37759118 -5.14620088 78.34059974 -10.5 80.9375 C-14 82 -14 82 -22 82 C-23.32 75.07 -24.64 68.14 -26 61 C-24.02 61 -22.04 61 -20 61 C-19.01 60.01 -18.02 59.02 -17 58 C-21.29 56.68 -25.58 55.36 -30 54 C-29.505 56.97 -29.505 56.97 -29 60 C-32.24725579 61.00906461 -35.49821074 62.00565122 -38.75 63 C-39.67039062 63.28617187 -40.59078125 63.57234375 -41.5390625 63.8671875 C-42.87324219 64.27324219 -42.87324219 64.27324219 -44.234375 64.6875 C-45.05131836 64.93886719 -45.86826172 65.19023437 -46.70996094 65.44921875 C-49 66 -49 66 -53 66 C-53.66 61.38 -54.32 56.76 -55 52 C-53.02 51.34 -51.04 50.68 -49 50 C-49 49.67 -49 49.34 -49 49 C-52.96 48.01 -56.92 47.02 -61 46 C-60.75765625 47.28165039 -60.5153125 48.56330078 -60.265625 49.88378906 C-59.36744079 54.63912778 -58.47401811 59.39535073 -57.58203125 64.15185547 C-57.19530986 66.21036824 -56.80729763 68.26863895 -56.41796875 70.32666016 C-55.85858039 73.28485424 -55.30384004 76.2438878 -54.75 79.203125 C-54.57500977 80.12305237 -54.40001953 81.04297974 -54.21972656 81.99078369 C-54.05956055 82.8513739 -53.89939453 83.71196411 -53.734375 84.59863281 C-53.52119629 85.73114471 -53.52119629 85.73114471 -53.30371094 86.88653564 C-53 89 -53 89 -53 93 C-59.93 94.98 -66.86 96.96 -74 99 C-75.57318692 95.85362616 -76.33134105 94.04993832 -76.9296875 90.75390625 C-77.08324707 89.92624756 -77.23680664 89.09858887 -77.39501953 88.24584961 C-77.55341309 87.36034424 -77.71180664 86.47483887 -77.875 85.5625 C-78.04499512 84.6454126 -78.21499023 83.7283252 -78.39013672 82.78344727 C-79.11608664 78.86605084 -79.82786688 74.94611072 -80.54101562 71.02636719 C-81.06414141 68.16249128 -81.59439551 65.29999809 -82.125 62.4375 C-82.28339355 61.55199463 -82.44178711 60.66648926 -82.60498047 59.75415039 C-82.75854004 58.9264917 -82.91209961 58.09883301 -83.0703125 57.24609375 C-83.20195801 56.52091553 -83.33360352 55.7957373 -83.46923828 55.04858398 C-84.04220345 52.8371071 -84.91240562 51.00294404 -86 49 C-88.475 49.495 -88.475 49.495 -91 50 C-91.1497845 56.18243173 -90.70783696 61.75025451 -89.46875 67.796875 C-89.31337769 68.59353577 -89.15800537 69.39019653 -88.9979248 70.21099854 C-88.50655567 72.72564146 -88.00416149 75.23789332 -87.5 77.75 C-86.9971839 80.27661476 -86.49689329 82.80365443 -86.0020752 85.33184814 C-85.69543144 86.89658993 -85.38406312 88.46041562 -85.06726074 90.02313232 C-84.33642495 93.73266488 -83.81740145 97.21573815 -84 101 C-89.23743875 102.86417311 -94.40686355 104.37887922 -99.83203125 105.60546875 C-101.56996948 106.00028442 -101.56996948 106.00028442 -103.34301758 106.40307617 C-104.21982178 106.60006104 -105.09662598 106.7970459 -106 107 C-107.27035996 100.77580914 -108.53292406 94.55007226 -109.7902832 88.32324219 C-110.21821022 86.20862735 -110.64786857 84.09436206 -111.0793457 81.98046875 C-111.70207715 78.9280048 -112.31840679 75.87430476 -112.93359375 72.8203125 C-113.12529648 71.88760529 -113.31699921 70.95489807 -113.51451111 69.993927 C-116.06467732 57.24844311 -117.23156056 47.32944488 -110 36 C-110.66 35.67 -111.32 35.34 -112 35 C-110.7625 34.6596875 -110.7625 34.6596875 -109.5 34.3125 C-106.61826401 33.23184901 -104.74344345 32.24506753 -102.25 30.5625 C-97.77610047 27.64586165 -93.14374047 26.29468298 -88 25 C-87.32582031 24.79761719 -86.65164063 24.59523438 -85.95703125 24.38671875 C-77.31263914 22.67854546 -66.35839846 28.30737201 -58.171875 30.96972656 C-54.40837027 32.19217037 -50.64181354 33.40498604 -46.875 34.6171875 C-39.24817915 37.07250338 -31.62358139 39.53464454 -24 42 C-24.21148682 41.40106934 -24.42297363 40.80213867 -24.64086914 40.18505859 C-24.91535889 39.38922363 -25.18984863 38.59338867 -25.47265625 37.7734375 C-25.74601807 36.98888184 -26.01937988 36.20432617 -26.30102539 35.39599609 C-28.86652943 26.60177444 -25.9892993 18.50217902 -21.75 10.69921875 C-16.7710819 3.18840765 -9.01668466 -0.98007442 0 0 Z " fill="#3B3B3B" transform="translate(559,382)"/>
<path d="M0 0 C9.17470777 6.47626431 14.75948835 16.08910597 17 27 C17.90547222 35.50397102 17.55042024 42.6482273 13 50 C12.5875 50.69738281 12.175 51.39476562 11.75 52.11328125 C7.18350134 59.00194826 0.49321429 63.3377914 -7.5 65.375 C-19.07787957 67.31814063 -30.00440993 65.49892821 -40 59.0625 C-43.32207957 56.64368659 -46.24455747 54.06160281 -49 51 C-49.825 50.13375 -50.65 49.2675 -51.5 48.375 C-58.88542759 39.37693157 -60.98929726 28.32038726 -60 17 C-57.80240829 7.7727625 -51.87670143 0.23549916 -44 -4.96875 C-28.7952097 -12.80872 -13.47987282 -9.14287026 0 0 Z M-35.3125 18 C-37.90705256 22.61253789 -37.82472498 26.83461721 -37 32 C-35.0414748 37.21695652 -31.90753316 40.87288519 -26.88671875 43.3125 C-21.97000654 45.104097 -18.33287074 45.3554322 -13.25 44 C-9.26792628 41.54949309 -7.48922376 39.40598747 -6 35 C-5.20955076 28.77521223 -6.248935 24.10319308 -10 19 C-14.87679666 14.52221398 -19.27235012 12.67413214 -26.0078125 12.78515625 C-30.05519804 13.221639 -32.33713212 15.42670886 -35.3125 18 Z " fill="#3B3B3B" transform="translate(319,449)"/>
<path d="M0 0 C4.76857303 4.03688722 6.28171048 8.82890312 7.29296875 14.7890625 C7.70958173 20.37344927 5.50085601 24.71355974 2.4765625 29.25 C3.1571875 29.29125 3.8378125 29.3325 4.5390625 29.375 C10.02842284 31.01012861 13.48353646 34.61631201 16.4140625 39.4375 C18.13299267 45.60542592 18.38068162 51.4312757 16.4140625 57.5625 C11.70342518 64.09660983 6.31493402 67.48127656 -1.5234375 69.25 C-3.85374331 69.60387908 -6.18677022 69.94090202 -8.5234375 70.25 C-9.19443734 67.64688008 -9.86039088 65.04264602 -10.5234375 62.4375 C-10.71421875 61.69951172 -10.905 60.96152344 -11.1015625 60.20117188 C-11.87606664 57.14464659 -12.5234375 54.41626522 -12.5234375 51.25 C-9.5534375 50.59 -6.5834375 49.93 -3.5234375 49.25 C-4.0184375 47.27 -4.0184375 47.27 -4.5234375 45.25 C-7.8234375 44.92 -11.1234375 44.59 -14.5234375 44.25 C-15.8434375 37.98 -17.1634375 31.71 -18.5234375 25.25 C-16.0484375 23.765 -16.0484375 23.765 -13.5234375 22.25 C-13.5234375 21.26 -13.5234375 20.27 -13.5234375 19.25 C-16.4934375 18.92 -19.4634375 18.59 -22.5234375 18.25 C-22.2968042 19.25675781 -22.0701709 20.26351563 -21.83666992 21.30078125 C-20.97834865 25.11720188 -20.12380172 28.93446016 -19.27026367 32.75195312 C-18.90374366 34.38889453 -18.53626559 36.02562178 -18.16772461 37.66210938 C-15.73043626 48.48859078 -13.48670746 59.32725109 -11.5234375 70.25 C-16.75247384 71.74401038 -21.94125488 72.63281374 -27.33203125 73.3203125 C-28.37176086 73.45578491 -28.37176086 73.45578491 -29.43249512 73.59399414 C-31.12920387 73.81476366 -32.82628441 74.03267267 -34.5234375 74.25 C-44.34940775 32.22575396 -44.34940775 32.22575396 -48.1484375 15.1875 C-48.5189624 13.5336731 -48.5189624 13.5336731 -48.89697266 11.84643555 C-49.11659668 10.85426025 -49.3362207 9.86208496 -49.5625 8.83984375 C-49.75021973 7.99284912 -49.93793945 7.14585449 -50.13134766 6.27319336 C-50.5234375 4.25 -50.5234375 4.25 -50.5234375 2.25 C-9.32241376 -5.91377789 -9.32241376 -5.91377789 0 0 Z " fill="#3B3B3B" transform="translate(387.5234375,433.75)"/>
<path d="M0 0 C3.80059103 3.16715919 6.06388239 6.50414718 7.625 11.1875 C8.77805942 24.66506333 5.0876648 33.64495027 -3.38671875 43.921875 C-6.47989684 47.44434045 -9.90323148 50.45433083 -13.5625 53.375 C-14.13210449 53.83253662 -14.70170898 54.29007324 -15.28857422 54.76147461 C-18.33202672 57.06668127 -20.23985401 58.15697392 -24.05859375 59.01953125 C-27.68366488 59.91150255 -27.68366488 59.91150255 -29.4921875 63.53125 C-30.09681762 64.90861143 -30.68194003 66.2946576 -31.25 67.6875 C-36.45963096 79.12081134 -42.70177028 86.20227184 -54.375 91.1875 C-56.90504393 92.64930316 -59.2135307 94.05927438 -61.5 95.875 C-66.68799747 98.24343363 -72.23417475 98.15061507 -77.66796875 96.484375 C-86.25996834 92.29010198 -94.87361477 83.51659376 -99.375 75.1875 C-98.715 75.1875 -98.055 75.1875 -97.375 75.1875 C-97.375 74.5275 -97.375 73.8675 -97.375 73.1875 C-93.80886386 73.80487209 -91.67564772 75.26773402 -88.8125 77.4375 C-81.23906519 82.8582501 -73.75530238 86.65653949 -64.375 87.1875 C-60.67837613 80.45436366 -58.48734695 73.55824256 -56.375 66.1875 C-57.344375 66.27 -58.31375 66.3525 -59.3125 66.4375 C-64.95995159 66.40320374 -69.9789524 64.2929631 -74.2109375 60.57421875 C-78.82323454 55.500692 -80.91860505 50.4270141 -80.6796875 43.4453125 C-78.73859679 29.06133265 -68.46209581 17.73675674 -57.375 9.1875 C-40.54155848 -2.27741215 -19.16303827 -10.29126129 0 0 Z M-61.29296875 29.33203125 C-62.76506141 31.23302992 -64.09658924 33.15247879 -65.375 35.1875 C-65.99375 36.156875 -66.6125 37.12625 -67.25 38.125 C-68.71607318 42.11597698 -69.47698745 46.01879747 -68.375 50.1875 C-65.73745352 53.60690829 -64.10810734 54.99990351 -59.89453125 56.078125 C-58.67121094 56.19671875 -57.44789063 56.3153125 -56.1875 56.4375 C-49.46771523 57.14114238 -49.46771523 57.14114238 -47.375 58.1875 C-45.76878066 62.70712781 -46.92958696 66.65465332 -48.125 71.125 C-48.29515625 71.81529297 -48.4653125 72.50558594 -48.640625 73.21679688 C-49.75175965 77.52652869 -51.31725859 81.21984343 -53.375 85.1875 C-53.375 85.8475 -53.375 86.5075 -53.375 87.1875 C-44.41422265 85.1713251 -38.82888729 78.14783896 -33.91796875 70.83203125 C-31.56546854 66.80002457 -29.88505103 62.59572349 -28.375 58.1875 C-29.365 57.5275 -30.355 56.8675 -31.375 56.1875 C-31.87890625 52.84765625 -31.87890625 52.84765625 -31.375 49.1875 C-29.21484375 46.74609375 -29.21484375 46.74609375 -26.3125 44.625 C-25.30574219 43.85800781 -24.29898438 43.09101562 -23.26171875 42.30078125 C-22.30910156 41.60339844 -21.35648438 40.90601563 -20.375 40.1875 C-13.33381629 34.95036719 -6.73780581 27.72104248 -5.3125 18.75 C-5.37342852 15.27707443 -5.49835989 13.98508387 -7.375 11.1875 C-9.36292049 10.06051858 -9.36292049 10.06051858 -11.6875 9.4375 C-12.44675781 9.19515625 -13.20601562 8.9528125 -13.98828125 8.703125 C-30.88928384 5.05184457 -50.62168364 17.400187 -61.29296875 29.33203125 Z " fill="#4D4D4D" transform="translate(532.375,497.8125)"/>
<path d="M0 0 C7.43559606 5.51758012 11.81223619 13.41000569 13.25 22.5 C14.47903009 37.8704627 11.98393808 51.0588726 2.25 63.5 C-3.62056987 70.05404578 -10.60849705 73.87947378 -19.375 74.9375 C-25.68944154 74.11896128 -31.24187223 72.12676271 -35.75 67.5 C-42.98629604 57.77161221 -45.97070277 46.55443983 -44.75 34.5 C-42.65058161 21.36113994 -37.26146432 9.89494274 -26.75 1.5 C-18.15576446 -3.95665749 -8.99154584 -5.49229788 0 0 Z M-22.75 23.5 C-26.52143955 29.55155823 -27.74673261 35.43880997 -26.75 42.5 C-25.25325441 46.61605038 -23.73408001 49.50796 -19.75 51.5 C-15.27522475 52.16292967 -13.3465334 51.87856927 -9.5 49.4375 C-4.61132929 44.73182765 -3.56502471 40.01943443 -3.3125 33.4375 C-3.44544071 28.12651877 -4.15846769 25.39937794 -7.75 21.5 C-13.32286303 17.78475798 -18.32373416 18.59521893 -22.75 23.5 Z " fill="#3B3B3B" transform="translate(614.75,367.5)"/>
<path d="M0 0 C1.1859375 -0.02900391 2.371875 -0.05800781 3.59375 -0.08789062 C12.33500552 -0.15060383 19.23479151 1.0391203 26.4609375 6.13671875 C32.66178618 12.59480788 36.30803593 19.52946646 37.1875 28.5 C36.87688805 32.2894658 36.35548201 33.34257878 34.515625 36.45703125 C33.20046364 39.32602164 32.6660354 40.62215397 33.59057617 43.67651367 C35.02320881 46.18837366 36.59524094 48.48613579 38.3125 50.8125 C39.4176607 52.40465866 40.52053972 53.99840359 41.62109375 55.59375 C42.43876221 56.75197266 42.43876221 56.75197266 43.27294922 57.93359375 C45.73227932 61.58548532 47.8209774 65.42176864 49.875 69.3125 C32.35880664 71.10165404 32.35880664 71.10165404 27.01171875 67.25 C24.97278202 64.37342394 23.42835303 61.47482483 21.875 58.3125 C20.63165187 56.62009294 19.38167566 54.93253456 18.125 53.25 C13.51153172 46.00780494 12.35025533 37.64173662 10.875 29.3125 C12.525 28.6525 14.175 27.9925 15.875 27.3125 C15.38 24.3425 15.38 24.3425 14.875 21.3125 C12.235 20.9825 9.595 20.6525 6.875 20.3125 C7.02533691 20.89687836 7.17567383 21.48125671 7.33056641 22.08334351 C8.89057348 28.14922701 10.44724401 34.21595962 12.00195312 40.28320312 C12.58312279 42.54937478 13.16515157 44.81532628 13.74804688 47.08105469 C14.58427659 50.33211102 15.41744399 53.58393872 16.25 56.8359375 C16.51248535 57.85368256 16.7749707 58.87142761 17.04541016 59.92001343 C17.28565918 60.86083771 17.5259082 61.80166199 17.7734375 62.77099609 C18.09320557 64.01675919 18.09320557 64.01675919 18.41943359 65.28768921 C18.875 67.3125 18.875 67.3125 18.875 69.3125 C12.605 69.3125 6.335 69.3125 -0.125 69.3125 C-2.3454232 60.89038479 -4.56273918 52.46746848 -6.77457428 44.04309368 C-7.80170754 40.13148469 -8.83020596 36.22024527 -9.86181641 32.30981445 C-10.85705925 28.5370361 -11.84872621 24.76333458 -12.83790588 20.98896217 C-13.21619585 19.54810847 -13.59577981 18.10759386 -13.97666931 16.66742516 C-14.50934553 14.652453 -15.03743585 12.63633151 -15.56445312 10.61987305 C-15.8664563 9.47181686 -16.16845947 8.32376068 -16.47961426 7.14091492 C-17.125 4.3125 -17.125 4.3125 -17.125 1.3125 C-11.56569757 -0.34362203 -5.74924248 0.04596942 0 0 Z " fill="#3C3C3C" transform="translate(217.125,446.6875)"/>
<path d="M0 0 C6.08457726 4.20125573 8.04614065 11.29608367 9.46081543 18.27249146 C10.41411801 23.66217979 11.18312436 29.07655919 11.92016602 34.49951172 C12.31473823 37.39140441 12.73122991 40.27954818 13.15039062 43.16796875 C13.4101477 45.01544359 13.6686563 46.86309449 13.92578125 48.7109375 C14.04963699 49.5693222 14.17349274 50.42770691 14.30110168 51.31210327 C15.33594818 59.07653609 15.33594818 59.07653609 14 63 C12.00390625 64.80078125 12.00390625 64.80078125 9.5625 66.3125 C8.75941406 66.82425781 7.95632813 67.33601563 7.12890625 67.86328125 C5 69 5 69 3 69 C0.43151449 53.36147475 -1.94019647 37.71380421 -4 22 C-4.66 22.33 -5.32 22.66 -6 23 C-6.45212836 33.23693966 -5.04783793 42.98493235 -3.5 53.0625 C-3.14105292 55.44720947 -2.78456604 57.83226346 -2.43005371 60.21763611 C-2.21055804 61.68942227 -1.98811707 63.16077306 -1.7623291 64.63160706 C-1.33489925 67.45726672 -1 70.13688715 -1 73 C-3.3359375 74.82421875 -3.3359375 74.82421875 -6.375 76.6875 C-7.87160156 77.62142578 -7.87160156 77.62142578 -9.3984375 78.57421875 C-12 80 -12 80 -14 80 C-14.87266401 74.36907362 -15.72608105 68.73564464 -16.56347656 63.09936523 C-16.84950571 61.19138447 -17.14034652 59.28411742 -17.43652344 57.37768555 C-18.9808604 47.41566159 -20.26639563 37.60023519 -20.28125 27.50390625 C-20.2824585 26.73580124 -20.28366699 25.96769623 -20.28491211 25.17631531 C-20.17382912 17.79613656 -19.0764333 11.3925885 -14.0234375 5.8203125 C-9.474542 1.70149439 -6.34591307 -0.74657801 0 0 Z " fill="#434343" transform="translate(650,342)"/>
<path d="M0 0 C2.14969793 8.29850364 4.01789122 16.62221034 5.69921875 25.02734375 C5.9391304 26.21928848 6.17904205 27.41123322 6.42622375 28.63929749 C6.92763312 31.13561921 7.42754958 33.63224123 7.92602539 36.12915039 C8.69049707 39.9524892 9.46319828 43.77410689 10.23632812 47.59570312 C10.72445783 50.03114994 11.21210525 52.46669348 11.69921875 54.90234375 C11.93041916 56.04195053 12.16161957 57.18155731 12.39982605 58.35569763 C12.61037125 59.41772903 12.82091644 60.47976044 13.0378418 61.57397461 C13.3173896 62.96863197 13.3173896 62.96863197 13.60258484 64.39146423 C13.99575164 66.97211479 14.07251777 69.39416308 14 72 C11.29352533 72.67511172 8.58522815 73.34027341 5.875 74 C5.11445313 74.19078125 4.35390625 74.3815625 3.5703125 74.578125 C2.82265625 74.75859375 2.075 74.9390625 1.3046875 75.125 C0.62390137 75.29257812 -0.05688477 75.46015625 -0.75830078 75.6328125 C-3.52481572 76.08596415 -6.20072735 76.02246276 -9 76 C-10.83129356 67.35188019 -12.65715471 58.70263646 -14.47612 50.05191517 C-15.32093718 46.03493757 -16.16760962 42.01836989 -17.01855469 38.00268555 C-17.83992354 34.12623509 -18.65637604 30.24877872 -19.4694519 26.37058067 C-19.78028034 24.89227219 -20.09286874 23.41433261 -20.40725708 21.93677711 C-20.8478056 19.8648109 -21.28203871 17.79161307 -21.71484375 15.71801758 C-22.08790649 13.94930046 -22.08790649 13.94930046 -22.46850586 12.14485168 C-22.94120979 9.34786177 -23.10915497 6.82681097 -23 4 C-20.10555905 3.3267344 -17.20969987 2.66119596 -14.3125 2 C-13.49587891 1.80921875 -12.67925781 1.6184375 -11.83789062 1.421875 C-11.04189453 1.24140625 -10.24589844 1.0609375 -9.42578125 0.875 C-8.69786377 0.70742188 -7.96994629 0.53984375 -7.2199707 0.3671875 C-4.77945135 -0.03647918 -2.46975827 -0.0240038 0 0 Z " fill="#3B3B3B" transform="translate(426,420)"/>
<path d="M0 0 C6.55994223 3.70688799 10.89473721 8.62945277 13.21484375 15.83984375 C14.68824443 22.37882032 14.00895248 27.86365933 11.00390625 33.86328125 C7.17754185 39.89235988 2.06934697 42.79143895 -4.765625 44.53125 C-11.90062764 45.66934858 -18.39418946 44.07032867 -24.3125 39.9375 C-29.37610874 35.32068027 -32.8530904 30.04382775 -33.62890625 23.109375 C-33.88532283 16.52525891 -33.33505307 11.29260161 -29.3125 5.9375 C-21.08364763 -2.29135237 -10.71160615 -4.8879769 0 0 Z M-19.3125 16.9375 C-20.00948269 19.77113453 -20.04401909 22.10857853 -19.3125 24.9375 C-16.36355654 28.58487744 -14.17438526 30.68924863 -9.5 31.3125 C-6.15581062 31.1913191 -6.15581062 31.1913191 -3.5 28.8125 C-1.06194793 25.60820299 -0.3125 23.94814998 -0.3125 19.9375 C-1.46824011 17.20566301 -1.46824011 17.20566301 -3.3125 14.9375 C-3.704375 14.339375 -4.09625 13.74125 -4.5 13.125 C-10.22116369 9.37665138 -15.85299095 11.74823643 -19.3125 16.9375 Z " fill="#3B3B3B" transform="translate(457.3125,268.0625)"/>
<path d="M0 0 C5.81696727 3.70082801 9.1893349 7.73307922 11.6015625 14.24609375 C13.34271572 22.66166763 12.2479095 29.20408836 8.3515625 36.87109375 C4.81803484 41.58531588 0.81779397 44.60460753 -4.6484375 46.87109375 C-4.6484375 47.20109375 -4.6484375 47.53109375 -4.6484375 47.87109375 C-13.35682215 47.84417448 -20.28522342 47.26082123 -26.6484375 40.87109375 C-31.29671121 34.41267499 -33.60651033 27.88164718 -32.6484375 19.87109375 C-30.15750237 10.20518243 -26.21079667 5.08296455 -17.6484375 -0.12890625 C-11.96742242 -2.02257794 -5.57356693 -2.37575346 0 0 Z M-17.6484375 16.87109375 C-19.24930377 20.07282629 -19.14760839 23.39686434 -18.6484375 26.87109375 C-16.85479839 29.68112835 -15.62962815 31.38049843 -12.6484375 32.87109375 C-8.65453314 33.40361433 -7.13102508 33.22499131 -3.8359375 30.80859375 C-1.20526132 27.27597145 -0.6484375 25.26204359 -0.6484375 20.87109375 C-2.16360378 16.85590312 -3.0539628 15.26741022 -6.6484375 12.87109375 C-11.74958516 12.20572666 -13.99534694 13.3223772 -17.6484375 16.87109375 Z " fill="#3B3B3B" transform="translate(271.6484375,309.12890625)"/>
<path d="M0 0 C2.64 13.86 5.28 27.72 8 42 C2.90358688 43.69880437 -0.79813078 44.4618756 -6 45 C-6.85843909 41.0681511 -7.71282476 37.13544553 -8.56347656 33.2019043 C-8.85338057 31.86409782 -9.14438784 30.52652992 -9.43652344 29.18920898 C-9.85642359 27.26609487 -10.2720188 25.3420424 -10.6875 23.41796875 C-10.93886719 22.26063232 -11.19023437 21.1032959 -11.44921875 19.91088867 C-12 17 -12 17 -12 14 C-13.32 14.33 -14.64 14.66 -16 15 C-16 15.66 -16 16.32 -16 17 C-15.36578125 17.21398437 -14.7315625 17.42796875 -14.078125 17.6484375 C-12 19 -12 19 -11.171875 21.6015625 C-11.03265625 22.59929687 -10.8934375 23.59703125 -10.75 24.625 C-10.60046875 25.62789063 -10.4509375 26.63078125 -10.296875 27.6640625 C-10.14992188 28.82035156 -10.14992188 28.82035156 -10 30 C-11.65 30.66 -13.3 31.32 -15 32 C-15 32.33 -15 32.66 -15 33 C-13.02 33.33 -11.04 33.66 -9 34 C-8.01 39.445 -8.01 39.445 -7 45 C-10.96968577 46.98484289 -15.68401067 46.54178145 -20 46 C-23.49789643 44.34382507 -25.47298823 41.93424813 -27.375 38.5625 C-28.1174404 35.51849437 -28.32548522 33.12465815 -28 30 C-27.46375 29.13375 -26.9275 28.2675 -26.375 27.375 C-25.92125 26.59125 -25.4675 25.8075 -25 25 C-25.56362302 22.95163118 -25.56362302 22.95163118 -27 21 C-29.07299004 17.5450166 -29.99121639 15.50066579 -30.0625 11.4375 C-28.75446243 7.20561374 -26.67959318 5.25610444 -23 3 C-20.03218374 1.88201778 -17.04551843 1.23181574 -13.9375 0.625 C-13.14794922 0.44839844 -12.35839844 0.27179688 -11.54492188 0.08984375 C-7.00065702 -0.86243304 -4.78714218 -0.95742844 0 0 Z " fill="#3A3A3A" transform="translate(415,273)"/>
<path d="M0 0 C1.545723 5.08338715 2.63945968 10.10148565 3.5078125 15.33984375 C3.70333206 16.49027916 3.70333206 16.49027916 3.90280151 17.66395569 C4.31388914 20.08786401 4.71953182 22.51264602 5.125 24.9375 C5.40458697 26.59185791 5.68453143 28.24615546 5.96484375 29.90039062 C6.64736297 33.93290774 7.32500413 37.96621704 8 42 C6.4188708 42.50692692 4.83498617 43.00526443 3.25 43.5 C2.36828125 43.7784375 1.4865625 44.056875 0.578125 44.34375 C-2 45 -2 45 -6 45 C-6.71541165 41.06789969 -7.42739889 37.13519627 -8.13623047 33.2019043 C-8.37780425 31.86416924 -8.62031006 30.52660214 -8.86376953 29.18920898 C-9.21372037 27.26590774 -9.56003308 25.34194565 -9.90625 23.41796875 C-10.11572266 22.26063232 -10.32519531 21.1032959 -10.54101562 19.91088867 C-11 17 -11 17 -11 14 C-12.65 14.66 -14.3 15.32 -16 16 C-16 17.32 -16 18.64 -16 20 C-14.35 20 -12.7 20 -11 20 C-8.16879236 29.89752753 -9.41748014 37.46914529 -13 47 C-17.76307437 47.95261487 -22.1666528 48.08333357 -27 48 C-26.77183594 46.97519531 -26.54367187 45.95039063 -26.30859375 44.89453125 C-26.0177139 43.53396422 -25.72737796 42.17328084 -25.4375 40.8125 C-25.28603516 40.13896484 -25.13457031 39.46542969 -24.97851562 38.77148438 C-24.16161652 34.87696538 -23.74984842 31.8119376 -25 28 C-26.93897879 25.32601524 -26.93897879 25.32601524 -29 23 C-30.99075574 19.01848853 -30.51368183 14.32960402 -30 10 C-27.46417025 5.26645113 -25.29307653 3.84495973 -20.25 2.1875 C-13.5411546 0.49032185 -6.91603579 -0.17733425 0 0 Z " fill="#3A3A3A" transform="translate(502,260)"/>
<path d="M0 0 C7.00586528 6.83499052 8.04329604 16.27454433 9.8125 25.5 C10.08227788 26.86088674 10.35310309 28.2215663 10.625 29.58203125 C11.28113424 32.88613579 11.92662996 36.19194664 12.5625 39.5 C10.79300388 40.00471197 9.02184777 40.50360685 7.25 41 C6.26386719 41.2784375 5.27773438 41.556875 4.26171875 41.84375 C1.5625 42.5 1.5625 42.5 -1.4375 42.5 C-3.7475 32.6 -6.0575 22.7 -8.4375 12.5 C-9.4275 12.83 -10.4175 13.16 -11.4375 13.5 C-11.20244751 14.64214966 -11.20244751 14.64214966 -10.96264648 15.80737305 C-10.25679991 19.26546794 -9.56576184 22.72636176 -8.875 26.1875 C-8.62814453 27.38568359 -8.38128906 28.58386719 -8.12695312 29.81835938 C-7.89814453 30.97529297 -7.66933594 32.13222656 -7.43359375 33.32421875 C-7.11152954 34.91882935 -7.11152954 34.91882935 -6.78295898 36.5456543 C-6.43716997 39.50282237 -6.67696429 41.64047819 -7.4375 44.5 C-11.70366316 45.63764351 -15.00236311 46.5 -19.4375 46.5 C-20.61353936 41.90329794 -21.76896342 37.30222122 -22.8984375 32.69384766 C-23.3949198 30.67329061 -23.90017555 28.65489469 -24.40625 26.63671875 C-26.34799104 18.41128797 -27.55662991 11.90126982 -23.8125 4.125 C-17.71377737 -2.61569344 -8.16072231 -3.56104246 0 0 Z " fill="#3B3B3B" transform="translate(352.4375,287.5)"/>
<path d="M0 0 C2.29612756 13.6332574 2.29612756 13.6332574 2 20 C1.38125 20.061875 0.7625 20.12375 0.125 20.1875 C-2.21943438 20.80665434 -2.21943438 20.80665434 -3.0859375 23.2265625 C-5.77914333 31.39825541 -5.91310082 41.17379836 -2 49 C-0.68 49 0.64 49 2 49 C2 48.01 2 47.02 2 46 C1.01 46.495 1.01 46.495 0 47 C-0.49944164 44.43960941 -0.94955762 41.88530684 -1.375 39.3125 C-1.59349609 38.2306543 -1.59349609 38.2306543 -1.81640625 37.12695312 C-2.1484375 34.98828125 -2.1484375 34.98828125 -2 31 C-0.21386997 28.6244045 1.41499718 27.61802028 4 26 C4.66 26 5.32 26 6 26 C7.58455866 24.21276059 7.58455866 24.21276059 9.125 22 C9.66382813 21.2575 10.20265625 20.515 10.7578125 19.75 C11.16773438 19.1725 11.57765625 18.595 12 18 C14.00456012 21.00684018 14.44083292 22.39107394 14.875 25.875 C14.99617187 26.71804688 15.11734375 27.56109375 15.2421875 28.4296875 C15 31 15 31 13.015625 33.44140625 C10.50625269 36.62675288 10.62810317 38.07758516 10.875 42.0625 C11.14780283 51.33779615 10.62861277 61.21698717 5 69 C2.5625 71.125 2.5625 71.125 0 72 C-3.18783951 71.37798253 -4.70630724 70.2758932 -7.0625 68.0625 C-16.92233294 52.47760278 -16.80602094 31.76437794 -12.91796875 14.33203125 C-11.49176066 9.15519932 -9.87051325 4.87051325 -6 1 C-4 0 -4 0 0 0 Z " fill="#595959" transform="translate(678,322)"/>
<path d="M0 0 C9.02792791 5.12950449 11.67085784 16.32507352 14.75 25.5625 C14.09 19.6225 13.43 13.6825 12.75 7.5625 C16.75 8.5625 16.75 8.5625 18.75 9.5625 C19.26469228 12.01420209 19.65041305 14.38788327 19.96875 16.8671875 C20.12311272 17.98817337 20.12311272 17.98817337 20.28059387 19.13180542 C20.61298069 21.56588758 20.9318373 24.00152119 21.25 26.4375 C21.47242094 28.0915359 21.69532077 29.74550747 21.91870117 31.39941406 C23.39627447 42.43283415 24.74611975 53.47486734 25.75 64.5625 C22.88275314 63.98905063 21.8885485 63.7010485 19.75 61.5625 C19.24755859 59.49951172 19.24755859 59.49951172 18.8984375 56.9921875 C18.76953125 56.09628906 18.640625 55.20039063 18.5078125 54.27734375 C18.38148438 53.34019531 18.25515625 52.40304687 18.125 51.4375 C17.9909375 50.49261719 17.856875 49.54773438 17.71875 48.57421875 C17.3883644 46.23792055 17.0657825 43.90080929 16.75 41.5625 C16.61577637 42.29114258 16.48155273 43.01978516 16.34326172 43.77050781 C14.75052363 52.4168003 14.75052363 52.4168003 12.75 55.5625 C9.9375 56.625 9.9375 56.625 6.75 56.5625 C0.77545295 52.15271528 -2.32431611 44.96900827 -3.9453125 37.859375 C-4.57442269 33.11685202 -4.39316058 28.33451929 -4.25 23.5625 C-0.62673261 22.3547442 0.39146369 23.01938872 3.75 24.5625 C3.97134176 26.68618444 4.17670007 28.81154024 4.375 30.9375 C4.49101563 32.12085938 4.60703125 33.30421875 4.7265625 34.5234375 C4.73429688 35.52632813 4.74203125 36.52921875 4.75 37.5625 C4.09 38.2225 3.43 38.8825 2.75 39.5625 C4.73 39.0675 4.73 39.0675 6.75 38.5625 C7.08050781 31.73200529 6.37376027 25.92933111 3.75 19.5625 C1.6114515 17.4239515 0.61724686 17.13594937 -2.25 16.5625 C-3.44088986 11.18222975 -4.5419519 6.10958616 -4.25 0.5625 C-2.25 -0.4375 -2.25 -0.4375 0 0 Z " fill="#5B5B5B" transform="translate(664.25,264.4375)"/>
<path d="M0 0 C9.07795489 6.05196993 10.87521315 21.86205423 13 32 C13 33.32 13 34.64 13 36 C15.31 36 17.62 36 20 36 C20 36.33 20 36.66 20 37 C12.74 37.33 5.48 37.66 -2 38 C-1.34 37.34 -0.68 36.68 0 36 C-0.30933098 32.41053149 -1.32614445 28.93115811 -2.1875 25.4375 C-2.40986328 24.45330078 -2.63222656 23.46910156 -2.86132812 22.45507812 C-3.08626953 21.51986328 -3.31121094 20.58464844 -3.54296875 19.62109375 C-3.74946045 18.7592749 -3.95595215 17.89745605 -4.16870117 17.00952148 C-4.44302979 16.34637939 -4.7173584 15.6832373 -5 15 C-5.99 14.67 -6.98 14.34 -8 14 C-6.72294799 22.30735719 -6.72294799 22.30735719 -4.875 30.5 C-4 34 -4 34 -4 38 C-9.94 38.33 -15.88 38.66 -22 39 C-22 38.67 -22 38.34 -22 38 C-20.35 38 -18.7 38 -17 38 C-17.28875 36.99582031 -17.5775 35.99164063 -17.875 34.95703125 C-23.44269172 14.80139282 -23.44269172 14.80139282 -19.5 5.4375 C-13.76641972 -0.15274077 -7.87063742 -2.51800086 0 0 Z " fill="#3B3B3B" transform="translate(227,322)"/>
<path d="M0 0 C6.24525576 0.52688452 11.70059999 1.61463958 17.61328125 3.65234375 C18.39011765 3.91253799 19.16695404 4.17273224 19.96733093 4.44081116 C21.59301202 4.98715071 23.2172597 5.53777297 24.84008789 6.0925293 C27.32063964 6.9402818 29.80530385 7.77493485 32.29101562 8.60742188 C33.87785743 9.14247863 35.46445499 9.67826042 37.05078125 10.21484375 C37.78935867 10.46386948 38.5279361 10.7128952 39.28889465 10.96946716 C48.8829163 14.25635255 48.8829163 14.25635255 52.25 19.375 C53.03117188 20.53128906 53.03117188 20.53128906 53.828125 21.7109375 C55 24 55 24 55 28 C49.76119922 27.44854729 45.02649303 26.57077907 40 25 C40.495 27.97 40.495 27.97 41 31 C37.75274421 32.00906461 34.50178926 33.00565122 31.25 34 C30.32960938 34.28617187 29.40921875 34.57234375 28.4609375 34.8671875 C27.57148437 35.13789063 26.68203125 35.40859375 25.765625 35.6875 C24.94868164 35.93886719 24.13173828 36.19023437 23.29003906 36.44921875 C21 37 21 37 17 37 C16.34 32.38 15.68 27.76 15 23 C16.98 22.34 18.96 21.68 21 21 C21 20.67 21 20.34 21 20 C20.40832031 19.89042969 19.81664062 19.78085937 19.20703125 19.66796875 C10.10887597 17.84240089 10.10887597 17.84240089 7 15 C5.80709196 12.52805338 4.84283551 10.03556704 3.9140625 7.453125 C2.90560279 4.74666047 1.60072109 2.40108164 0 0 Z " fill="#4D4D4D" transform="translate(489,411)"/>
<path d="M0 0 C6.38659432 2.39497287 8.97176466 7.37487598 11.82983398 13.21118164 C13.86682966 18.28348363 14.54054973 23.48143991 15.25 28.875 C15.41274414 30.01501465 15.57548828 31.1550293 15.74316406 32.32958984 C16.84091816 40.24266119 17.70952466 48.13692813 18 56.125 C15.03 55.465 12.06 54.805 9 54.125 C7.31406179 46.12059064 6.0449917 38.09460926 4.875 30 C4.69324219 28.75734375 4.51148438 27.5146875 4.32421875 26.234375 C3.88047726 23.19824902 3.43912424 20.16179662 3 17.125 C1.63722444 20.97982931 2.23661417 24.29875329 2.77734375 28.296875 C2.86754288 28.9792926 2.957742 29.66171021 3.05067444 30.36480713 C3.33927291 32.53587837 3.63823326 34.70537621 3.9375 36.875 C4.13545162 38.35016853 4.33272499 39.82542824 4.52929688 41.30078125 C5.01167665 44.90994397 5.50335685 48.51776909 6 52.125 C2.79937313 53.72531344 0.27728194 52.15673691 -3 51.125 C-10.64632731 18.47850688 -10.64632731 18.47850688 -8 5.125 C-3.98463687 0.16602654 -3.98463687 0.16602654 0 0 Z " fill="#464646" transform="translate(642,258.875)"/>
<path d="M0 0 C4.81422112 2.40711056 7.76304486 5.09590603 10 10 C10.58338592 16.45011193 10.17776432 22.64198772 9 29 C12.465 28.505 12.465 28.505 16 28 C17.485 33.94 17.485 33.94 19 40 C14.73395537 43.50034431 11.72826157 44.65217395 6.1796875 44.390625 C1.80842498 43.60724462 -0.95727184 41.18655274 -3.8125 37.9375 C-7.77033208 31.4799845 -6.03726571 23.13120174 -5 16 C-6.65 16 -8.3 16 -10 16 C-13.44419134 6.58997722 -13.44419134 6.58997722 -13 2 C-8.76175949 -0.11912026 -4.66910803 -0.73384802 0 0 Z " fill="#3B3B3B" transform="translate(295,299)"/>
<path d="M0 0 C5.11170174 2.74086284 6.66977069 8.88871161 8.46484375 14.1418457 C9.32237686 17.00772037 10.08670312 19.8833918 10.82177734 22.78295898 C11.08539063 23.74266602 11.34900391 24.70237305 11.62060547 25.69116211 C13.5759498 33.23320453 15.37881246 41.46257835 11.88427734 48.72045898 C9.26210077 51.61865414 6.59958728 53.95749222 3.50927734 56.34545898 C1.39883352 53.17979325 0.75375658 50.83348483 -0.11572266 47.15795898 C-0.37611328 46.0712793 -0.63650391 44.98459961 -0.90478516 43.86499023 C-1.09814453 43.03354492 -1.29150391 42.20209961 -1.49072266 41.34545898 C-0.66572266 40.76795898 0.15927734 40.19045898 1.00927734 39.59545898 C1.83427734 38.85295898 2.65927734 38.11045898 3.50927734 37.34545898 C3.50927734 36.02545898 3.50927734 34.70545898 3.50927734 33.34545898 C2.89052734 33.84045898 2.27177734 34.33545898 1.63427734 34.84545898 C-0.49072266 36.34545898 -0.49072266 36.34545898 -2.49072266 36.34545898 C-3.48072266 32.38545898 -4.47072266 28.42545898 -5.49072266 24.34545898 C-4.17072266 23.35545898 -2.85072266 22.36545898 -1.49072266 21.34545898 C-0.69448444 19.25130095 -0.69448444 19.25130095 -0.49072266 17.34545898 C-1.27447266 17.84045898 -2.05822266 18.33545898 -2.86572266 18.84545898 C-5.49072266 20.34545898 -5.49072266 20.34545898 -7.49072266 20.34545898 C-8.81072266 15.39545898 -10.13072266 10.44545898 -11.49072266 5.34545898 C-3.20070791 -0.84111918 -3.20070791 -0.84111918 0 0 Z " fill="#4A4A4A" transform="translate(120.49072265625,370.654541015625)"/>
<path d="M0 0 C3.69451918 2.46301279 3.9026982 3.96047003 5.1875 8.125 C5.53167969 9.22070312 5.87585938 10.31640625 6.23046875 11.4453125 C6.61138672 12.70988281 6.61138672 12.70988281 7 14 C7.33 12.68 7.66 11.36 8 10 C9.65114255 13.75914193 10.53601244 17.30349929 11.21875 21.34765625 C11.42798096 22.58281982 11.63721191 23.8179834 11.8527832 25.09057617 C12.06940113 26.41440725 12.2851215 27.73838547 12.5 29.0625 C12.61016449 29.73439362 12.72032898 30.40628723 12.83383179 31.09854126 C20.53433272 78.26507443 20.53433272 78.26507443 13 97 C12.67 97 12.34 97 12 97 C10.96737919 89.45422275 9.94115371 81.90759767 8.92260075 74.35990906 C8.44921414 70.85345351 7.97380791 67.34729905 7.4934082 63.84179688 C3.60320909 35.43725026 3.60320909 35.43725026 3.27124023 23.99609375 C2.9765318 20.74077252 2.08507202 18.07265342 1 15 C0.71651979 12.35240178 0.49835747 9.77718557 0.375 7.125 C0.33632813 6.43664062 0.29765625 5.74828125 0.2578125 5.0390625 C0.16451834 3.35976754 0.08121762 1.67992233 0 0 Z M8 21 C8 22.65 8 24.3 8 26 C8.33 26 8.66 26 9 26 C9 24.35 9 22.7 9 21 C8.67 21 8.34 21 8 21 Z M10 45 C11 47 11 47 11 47 Z M12 64 C12 66.31 12 68.62 12 71 C12.33 71 12.66 71 13 71 C13 68.69 13 66.38 13 64 C12.67 64 12.34 64 12 64 Z " fill="#A4A4A4" transform="translate(685,275)"/>
<path d="M0 0 C1.14566679 5.4613418 2.28480502 10.92398969 3.41796875 16.38793945 C3.80420578 18.24573308 4.19221042 20.10316014 4.58203125 21.96020508 C5.1426996 24.63267655 5.69695534 27.3064106 6.25 29.98046875 C6.42499023 30.80773972 6.59998047 31.63501068 6.78027344 32.48735046 C7.58036737 36.38592185 8.22624092 39.99482878 8 44 C6.58461283 44.33872513 5.16762037 44.67074624 3.75 45 C2.96109375 45.185625 2.1721875 45.37125 1.359375 45.5625 C-1 46 -1 46 -5 46 C-7.51443993 36.44793771 -9.72596878 26.85520851 -11.75 17.1875 C-11.97260498 16.13175781 -12.19520996 15.07601563 -12.42456055 13.98828125 C-12.62992432 12.99570312 -12.83528809 12.003125 -13.046875 10.98046875 C-13.23088867 10.09254639 -13.41490234 9.20462402 -13.60449219 8.28979492 C-14 6 -14 6 -14 3 C-12.23050388 2.49528803 -10.45934777 1.99639315 -8.6875 1.5 C-7.70136719 1.2215625 -6.71523438 0.943125 -5.69921875 0.65625 C-3 0 -3 0 0 0 Z " fill="#3A3A3A" transform="translate(377,279)"/>
<path d="M0 0 C3.76642172 1.33917217 4.75594587 3.16999521 6.68359375 6.578125 C10.6921074 15.17770445 11.65586637 24.67889367 12.8125 34 C13.8025 33.34 14.7925 32.68 15.8125 32 C16.56718767 34.39034542 17.29111971 36.78356843 18 39.1875 C18.21591797 39.86103516 18.43183594 40.53457031 18.65429688 41.22851562 C19.65557638 44.70753763 19.99966295 46.5560046 18.57421875 49.9375 C16.8125 52 16.8125 52 14.4375 52.8125 C10.75330728 51.67215463 9.78218282 49.7519636 7.94140625 46.45703125 C3.97109262 37.81576041 2.97255021 28.34863992 1.8125 19 C0.8225 19 -0.1675 19 -1.1875 19 C-1.94034195 16.58850626 -2.66481111 14.17405166 -3.375 11.75 C-3.59091797 11.06808594 -3.80683594 10.38617188 -4.02929688 9.68359375 C-4.60546875 7.671875 -4.60546875 7.671875 -5.1875 4 C-2.9547956 0 -2.9547956 0 0 0 Z " fill="#5B5B5B" transform="translate(102.1875,382)"/>
<path d="M0 0 C7.27787391 3.70759614 10.42346562 9.16425194 13.25 16.55078125 C14.13920448 19.45458963 14.3176647 21.98218533 14 25 C10.37 25.33 6.74 25.66 3 26 C2.05598958 23.98177083 1.11197917 21.96354167 0.16796875 19.9453125 C-0.99467097 17.69457194 -0.99467097 17.69457194 -4 16 C-7.41925999 16.35069333 -9.97850056 17.43472216 -13 19 C-13.508783 17.44033782 -14.00663469 15.87710759 -14.5 14.3125 C-14.7784375 13.44238281 -15.056875 12.57226562 -15.34375 11.67578125 C-15.99850805 9.00608323 -16.11831495 6.73603316 -16 4 C-10.66390332 0.3669129 -6.48153304 -1.17093389 0 0 Z " fill="#3B3B3B" transform="translate(191,335)"/>
<path d="M0 0 C2.91589609 4.37384413 4.30254716 7.70542471 4 13 C3.01 13 2.02 13 1 13 C0.67 13.66 0.34 14.32 0 15 C1.32 14.67 2.64 14.34 4 14 C4 15.98 4 17.96 4 20 C6.97 20.99 9.94 21.98 13 23 C10.18539786 26.54095108 7.99980141 28.35792849 3.5625 29.0625 C0.17613803 29.24813114 -1.10462867 28.95262098 -4.3125 27.5 C-7.50197717 24.53304449 -9.05992059 21.88015882 -11 18 C-13.31 18.99 -15.62 19.98 -18 21 C-18 17.37 -18 13.74 -18 10 C-16.02 9.01 -14.04 8.02 -12 7 C-11.67 7.33 -11.34 7.66 -11 8 C-10.64808594 7.07960938 -10.64808594 7.07960938 -10.2890625 6.140625 C-8.6609418 3.4369579 -7.27366164 2.90946466 -4.375 1.75 C-3.55773437 1.41484375 -2.74046875 1.0796875 -1.8984375 0.734375 C-0.95871094 0.37085938 -0.95871094 0.37085938 0 0 Z " fill="#3A3A3A" transform="translate(186,357)"/>
<path d="M0 0 C0.33 0 0.66 0 1 0 C0.98839844 0.69480469 0.97679687 1.38960938 0.96484375 2.10546875 C0.81647067 18.82923465 1.91391377 35.41257646 4 52 C-4.11029099 46.91009324 -7.26227 41.09216451 -9.49609375 31.86328125 C-11.09961534 22.7517981 -10.52785087 14.2397785 -5.27734375 6.44140625 C-3.58618649 4.21546825 -1.89494393 2.05528534 0 0 Z " fill="#3F3F3F" transform="translate(140,355)"/>
<path d="M0 0 C6.83691138 0.96316765 12.4772017 8.10298914 16.875 13.0625 C23.35783829 22.02407058 24.83270638 30.00586208 24 41 C20.11848062 61.34707291 5.76680509 78.58323297 -6 95 C-6.66 94.67 -7.32 94.34 -8 94 C-7.62302979 93.4831665 -7.24605957 92.96633301 -6.85766602 92.43383789 C13.85047414 64.4661897 13.85047414 64.4661897 19 31 C17.34767197 21.64750254 9.94105278 15.17262366 2.5 9.9375 C1.00781919 8.94645823 -0.48938407 7.9627081 -2 7 C-1.34 4.69 -0.68 2.38 0 0 Z " fill="#4A4A4A" transform="translate(565,441)"/>
<path d="M0 0 C0.99 0 1.98 0 3 0 C13.03923357 16.88012723 17.8989622 39.55578048 17 59 C15.515 59.495 15.515 59.495 14 60 C10.3920229 56.18103008 9.59753739 51.57552179 8.375 46.625 C8.1584375 45.78710938 7.941875 44.94921875 7.71875 44.0859375 C4.39979298 31.05595809 4.39979298 31.05595809 7 26 C7.33 25.67 7.66 25.34 8 25 C7.34 23.35 6.68 21.7 6 20 C5.01 20.33 4.02 20.66 3 21 C2.32331051 18.79471728 1.65906502 16.58561391 1 14.375 C0.62875 13.14523437 0.2575 11.91546875 -0.125 10.6484375 C-0.94062186 7.24758563 -1.25051315 4.47587001 -1 1 C-0.67 0.67 -0.34 0.34 0 0 Z M9 29 C10 33 10 33 10 33 Z M10 33 C11 36 11 36 11 36 Z M11 39 C12 42 12 42 12 42 Z " fill="#919191" transform="translate(86,401)"/>
<path d="M0 0 C0 1.98 0 3.96 0 6 C0.99 6.33 1.98 6.66 3 7 C2.34 7 1.68 7 1 7 C1.33 8.98 1.66 10.96 2 13 C-1.24725579 14.00906461 -4.49821074 15.00565122 -7.75 16 C-8.67039062 16.28617187 -9.59078125 16.57234375 -10.5390625 16.8671875 C-11.42851563 17.13789063 -12.31796875 17.40859375 -13.234375 17.6875 C-14.05131836 17.93886719 -14.86826172 18.19023437 -15.70996094 18.44921875 C-18 19 -18 19 -22 19 C-22.66 14.38 -23.32 9.76 -24 5 C-20.56532529 3.96870081 -17.12782373 2.94962394 -13.6875 1.9375 C-12.71103516 1.64294922 -11.73457031 1.34839844 -10.72851562 1.04492188 C-9.79072266 0.77099609 -8.85292969 0.49707031 -7.88671875 0.21484375 C-7.02264404 -0.04176025 -6.15856934 -0.29836426 -5.26831055 -0.56274414 C-3 -1 -3 -1 0 0 Z " fill="#3B3B3B" transform="translate(528,429)"/>
<path d="M0 0 C2 1 2 1 2.78546143 2.98480225 C3.03576111 3.85574524 3.28606079 4.72668823 3.54394531 5.62402344 C3.83054016 6.60884705 4.11713501 7.59367065 4.41241455 8.6083374 C4.714599 9.68117981 5.01678345 10.75402222 5.328125 11.859375 C5.79711212 13.5041684 5.79711212 13.5041684 6.27557373 15.18218994 C6.93533888 17.50796026 7.5907508 19.83496913 8.2421875 22.16308594 C9.24321424 25.72584875 10.2692763 29.28076156 11.296875 32.8359375 C11.9338438 35.09331261 12.5693101 37.35111233 13.203125 39.609375 C13.51340637 40.67412048 13.82368774 41.73886597 14.14337158 42.83587646 C14.41735779 43.83330872 14.69134399 44.83074097 14.97363281 45.85839844 C15.22075012 46.7325238 15.46786743 47.60664917 15.72247314 48.50726318 C16.06782459 51.60919819 15.51356559 53.28987102 14 56 C12.515 56.495 12.515 56.495 11 57 C8.75532687 49.69631239 6.54991675 42.3816062 4.37158203 35.05786133 C3.62572651 32.56718445 2.87087885 30.07918214 2.10693359 27.59399414 C1.0111294 24.02372445 -0.05210649 20.44512344 -1.109375 16.86328125 C-1.45812683 15.75165115 -1.80687866 14.64002106 -2.16619873 13.4947052 C-2.99452912 10.62708645 -3.72904466 7.97259795 -4 5 C-2.18066406 1.75854492 -2.18066406 1.75854492 0 0 Z " fill="#6D6D6D" transform="translate(95,389)"/>
<path d="M0 0 C2.16874252 0.50603992 3.99967627 0.99983813 6 2 C6.51469228 4.45170209 6.90041305 6.82538327 7.21875 9.3046875 C7.32165848 10.05201141 7.42456696 10.79933533 7.53059387 11.56930542 C7.86298069 14.00338758 8.1818373 16.43902119 8.5 18.875 C8.72242094 20.5290359 8.94532077 22.18300747 9.16870117 23.83691406 C10.64627447 34.87033415 11.99611975 45.91236734 13 57 C10.13275314 56.42655063 9.1385485 56.1385485 7 54 C6.52929688 52.19091797 6.52929688 52.19091797 6.21875 49.9921875 C6.10007568 49.17862793 5.98140137 48.36506836 5.85913086 47.52685547 C5.74061768 46.65174316 5.62210449 45.77663086 5.5 44.875 C5.30772827 43.52172607 5.30772827 43.52172607 5.11157227 42.14111328 C4.73021502 39.42876074 4.36223272 36.71496726 4 34 C3.85280518 32.90171875 3.85280518 32.90171875 3.70263672 31.78125 C2.30212034 21.20747846 1.15356497 10.60298016 0 0 Z " fill="#747474" transform="translate(677,272)"/>
<path d="M0 0 C0.33 0 0.66 0 1 0 C1 1.65 1 3.3 1 5 C1.99 5.33 2.98 5.66 4 6 C9.09016668 16.18033336 7.30034786 36.00510199 4 46.6875 C3.36120737 48.46857807 2.70599232 50.24447444 2 52 C1.67 52 1.34 52 1 52 C0.67 48.37 0.34 44.74 0 41 C0.66 41 1.32 41 2 41 C1.9278125 40.27554688 1.855625 39.55109375 1.78125 38.8046875 C1.30592078 33.85334145 0.86538002 28.98093926 1 24 C0.67 24 0.34 24 0 24 C-0.125 17.25 -0.125 17.25 1 15 C0.72527887 12.8251244 0.38205457 10.65860832 0 8.5 C-1.11111111 2.22222222 -1.11111111 2.22222222 0 0 Z " fill="#949494" transform="translate(696,320)"/>
<path d="M0 0 C0.33 2.64 0.66 5.28 1 8 C-0.74816858 8.50636607 -2.49862263 9.00484619 -4.25 9.5 C-5.22453125 9.7784375 -6.1990625 10.056875 -7.203125 10.34375 C-10 11 -10 11 -14 11 C-14.66 8.03 -15.32 5.06 -16 2 C-14.27507022 1.46530198 -12.544802 0.94780825 -10.8125 0.4375 C-9.36810547 0.00244141 -9.36810547 0.00244141 -7.89453125 -0.44140625 C-4.87247412 -1.02461026 -2.94070045 -0.81178385 0 0 Z " fill="#393939" transform="translate(326,313)"/>
<path d="M0 0 C5.07738034 3.38492022 5.61985983 9.27335504 7 15 C8.47436719 23.04470151 7.984492 29.3785854 5 37 C4.67 37 4.34 37 4 37 C3.95101562 35.91460937 3.90203125 34.82921875 3.8515625 33.7109375 C3.77648014 32.26560216 3.70093472 30.82029081 3.625 29.375 C3.57859375 28.30572266 3.57859375 28.30572266 3.53125 27.21484375 C3.28731875 22.78342606 2.42357356 19.22623401 1 15 C0.71651979 12.35240178 0.49835747 9.77718557 0.375 7.125 C0.33632813 6.43664062 0.29765625 5.74828125 0.2578125 5.0390625 C0.16451834 3.35976754 0.08121762 1.67992233 0 0 Z " fill="#8E8E8E" transform="translate(685,275)"/>
<path d="M0 0 C2.76175958 4.14263937 3.21259969 8.05508872 3 13 C1.1875 16.125 1.1875 16.125 -1 18 C-1.66 18 -2.32 18 -3 18 C-4.96510837 14.06978326 -4.47530928 9.28395638 -4 5 C-2 1.8125 -2 1.8125 0 0 Z " fill="#737373" transform="translate(690,340)"/>
<path d="M0 0 C0.66 0.33 1.32 0.66 2 1 C-8.56828415 24.20991016 -8.56828415 24.20991016 -20 30 C-22.8125 29.6875 -22.8125 29.6875 -25 29 C-24.67 28.34 -24.34 27.68 -24 27 C-22.7315625 26.6596875 -22.7315625 26.6596875 -21.4375 26.3125 C-11.79478631 22.63073659 -6.25837739 13.69007272 -1.8984375 4.73828125 C-1.22093836 3.17750052 -0.60130477 1.59168909 0 0 Z " fill="#3A3A3A" transform="translate(503,557)"/>
<path d="M0 0 C0.66 0.99 1.32 1.98 2 3 C-4.06601847 13.52362296 -10.69319367 23.49754117 -17.81420898 33.33691406 C-18.90708047 34.86967925 -19.95578705 36.43368058 -21 38 C-21.66 37.67 -22.32 37.34 -23 37 C-22.62302979 36.4831665 -22.24605957 35.96633301 -21.85766602 35.43383789 C-13.59228311 24.03795222 -6.19378876 12.64974848 0 0 Z " fill="#383838" transform="translate(580,498)"/>
<path d="M0 0 C2 2 2 2 2.1953125 3.9453125 C2.13020833 5.96354167 2.06510417 7.98177083 2 10 C2.66 10 3.32 10 4 10 C3.49202991 14.3177458 2.80317221 18.03302114 1 22 C0.67 22 0.34 22 0 22 C-0.33 18.37 -0.66 14.74 -1 11 C-0.34 11 0.32 11 1 11 C0.67 7.37 0.34 3.74 0 0 Z " fill="#8C8C8C" transform="translate(697,350)"/>
<path d="M0 0 C1.32 0.33 2.64 0.66 4 1 C4 5.95 4 10.9 4 16 C3.34 16 2.68 16 2 16 C1.66104344 14.27192682 1.32908475 12.54248026 1 10.8125 C0.814375 9.84957031 0.62875 8.88664062 0.4375 7.89453125 C0.03122388 5.2065794 -0.07933572 2.71228981 0 0 Z " fill="#9C9C9C" transform="translate(694,345)"/>
<path d="M0 0 C0.33 0.66 0.66 1.32 1 2 C1.66 2 2.32 2 3 2 C2.39254603 6.85963179 0.27241033 10.7405518 -2 15 C-2.33 15 -2.66 15 -3 15 C-2.44854729 9.76119922 -1.57077907 5.02649303 0 0 Z " fill="#414141" transform="translate(584,485)"/>
<path d="M0 0 C-0.625 1.9375 -0.625 1.9375 -2 4 C-5.125 4.75 -5.125 4.75 -8 5 C-8 4.01 -8 3.02 -8 2 C-2.25 0 -2.25 0 0 0 Z " fill="#424242" transform="translate(487,582)"/>
<path d="" fill="#707070" transform="translate(0,0)"/>
<path d="" fill="#7C7C7C" transform="translate(0,0)"/>
</svg>
